<svg xmlns="http://www.w3.org/2000/svg" viewBox="0 0 24 24" height="24" width="24" id="Computer-Old-Electronics-Bug--Streamline-Pixel.svg"><desc>Computer Old Electronics Bug Streamline Icon: https://streamlinehq.com</desc><title>computer-old-electronics-bug</title><g><path d="M22.856250000000003 17.145h-3.4275v-1.1475h1.1400000000000001v-1.1400000000000001H3.4312500000000004v1.1400000000000001H4.574999999999999v1.1475H1.1437499999999998V24h21.7125Zm-17.145 -1.1475h12.57v1.1475H5.71125Zm16.005 6.862500000000001H2.28375v-4.574999999999999h19.4325Z" fill="#2b2c2b" stroke-width="1"></path><path d="M20.56875 1.1400000000000001h1.1475v13.7175h-1.1475Z" fill="#2b2c2b" stroke-width="1"></path><path d="m17.14125 21.7125 1.1400000000000001 0 0 -1.1400000000000001 1.1475 0 0 -1.1475 -5.715 0 0 1.1475 3.4275 0 0 1.1400000000000001z" fill="#2b2c2b" stroke-width="1"></path><path d="M14.85375 4.574999999999999h1.1475v1.1400000000000001h-1.1475Z" fill="#2b2c2b" stroke-width="1"></path><path d="M7.998749999999999 4.574999999999999h1.1400000000000001v1.1400000000000001h-1.1400000000000001Z" fill="#2b2c2b" stroke-width="1"></path><path d="M16.00125 6.855h-1.1475V5.715h-5.715v1.1400000000000001h-1.1400000000000001v1.1475h-1.1400000000000001v3.4275h1.1400000000000001v-2.2874999999999996h1.1400000000000001v2.2874999999999996h1.1475v-1.1475h3.4275v1.1475h1.1400000000000001v-2.2874999999999996h1.1475v2.2874999999999996h1.1400000000000001v-3.4275h-1.1400000000000001Zm-4.574999999999999 1.1475h-1.1400000000000001V6.855h1.1400000000000001Zm2.2874999999999996 0h-1.1400000000000001V6.855h1.1400000000000001Z" fill="#2b2c2b" stroke-width="1"></path><path d="M4.574999999999999 13.7175h14.857499999999998V2.2874999999999996H4.574999999999999ZM5.71125 3.4275h12.57v9.1425H5.71125Z" fill="#2b2c2b" stroke-width="1"></path><path d="M4.57125 19.424999999999997h1.1400000000000001v1.1475h-1.1400000000000001Z" fill="#2b2c2b" stroke-width="1"></path><path d="M3.4312500000000004 0h17.137500000000003v1.1400000000000001H3.4312500000000004Z" fill="#2b2c2b" stroke-width="1"></path><path d="M2.28375 1.1400000000000001h1.1475v13.7175h-1.1475Z" fill="#2b2c2b" stroke-width="1"></path></g></svg>